<svg xmlns="http://www.w3.org/2000/svg" width="604.72" height="604.72" viewBox="0 0 160 160"><path fill="#fff" d="M70.67 22.34a3.2 3.2 0 0 0-3.28 2.7 641 641 0 0 0-5.26 25.93c-.35 1.36-.27 3.06.98 3.94.98.78 2.3 1 3.47.54 5.01-1.6 9.92-3.53 14.88-5.31l15.23-5.81c1.35-.85 2.53-2.65 1.85-4.27-1-1.98-3.21-2.85-4.94-4.05-6.75-4.2-13.36-8.67-20.27-12.62-.84-.42-1.7-.98-2.66-1.05zm35.98 70.45c-1.49 0-2.7 1.25-3.18 2.57-.27 1.5-.36 3.34.86 4.48.75 1.02 2.05 1.28 3.25 1.16 1.51.01 2.76-1.3 3.21-2.65.3-1.47.19-3.2-.97-4.3a3.2 3.2 0 0 0-3-1.27h-.12zm-45.88 1.8c-1.47 0-2.9 1.06-3.07 2.57-.42 1.95.65 4.32 2.73 4.73 1.79.44 3.7-.9 3.9-2.74.33-1.64-.15-3.81-1.94-4.36a4 4 0 0 0-1.62-.2z"/><path fill="#fdb596" d="M76.98 147.49c-11.14-1.7-20.1-5.73-27.03-12.18-2.76-2.56-5.73-6.34-7.03-8.93a47 47 0 0 1-3.27-9.5c-.67-3.25-1.58-16.4-1.02-16.84.34-.27-.39.79-.66-1.7-.18-1.66-.74-2.45-.84-2.95-.18-.9 1.52-.94 2.93-1.32.81-.21 2.84-.94 4.51-1.62 9.1-3.7 11.43-4.07 18.56-3 2.51.36 5.88.7 7.48.74 2.48.06 3 .16 3.54.7.44.44 1.52.78 3.6 1.16 4.34.78 10.03.5 14.75-.74 4.9-1.3 9.75-3 10.48-3.68a9 9 0 0 1 2.3-1.23 6 6 0 0 1 3.34-.47c2.56.3 6.31 1.08 7.47 1.56.57.24 1.32.43 1.68.43.55 0 .63-.14.51-.84a8 8 0 0 0-.32-1.3c-.15-.35.64-.72 3.6-1.71 2.1-.7 3.85-1.18 3.92-1.07.25.42 4.15 10.6 4.75 14.32.35 2.17-.75 5.6-.59 5.9.5.93.94-1.45 1.84-1.9 1.2-.58.82.25 2.65-4.22 2.77-6.76 5.82-9.91 9.1-11.56 1.96-.98 2.65-1.56 4.87-1.55 2.88-1.17 3.83 1.05 5.2 1.83 2.38 1.37 2.5.46 3.65 3.96.28.88.52 5.4.66 5.3.45-.27.7 2.58.52 5.97-.4 7.39-4.4 14.53-10.04 17.92-3.69 2.2-8.48 2.5-12.08.75-1.08-.52-2.07-.89-2.2-.8s-.61.86-1.05 1.73a44 44 0 0 1-6.07 8.57c-8.34 9.45-22.74 16.7-36.08 18.14-2.76.3-11.92.39-13.63.13zm11.25-12.08c3.55-1.18 5.25-2.05 8.15-4.96 3-3.02 3.5-4.34 4.33-7.54.97-3.76 1.64-4.1-.02-4.22-1.57-.12-2.28.96-4.19 1.71-7.17 2.81-13.87 3.17-21.3 2.93a35 35 0 0 1-6.3-.58c-3.05-.7-3.37-1.4-2.12-.22a7 7 0 0 1 2.01 2.68c2.24 5.45 5.4 7.83 9.59 10.78 1.98 1.4 7.23.3 9.85-.58zm55.68-22.84c.75-.33 1.99-1.11 2.74-1.74s1.59-1.23 1.86-1.33c1-.37 3.61-4.31 4.26-6.42.9-2.93.73-6.04-.42-7.79-3.62-5.49-11.44-1.19-12.98 7.14-.33 1.78-.33 1.79.57 2.49.66.52.95 1.06 1.1 2.07.24 1.62-.26 3.89-1.1 4.96-1.3 1.65.83 1.99 3.97.62zm-82.13 0c1.57-.53 2.21-3.38 3.7-4.86 1.53-1.54.57-.81 1.15-2.57 1.2-3.64-3.46-7.81-1.54-9.73 1.45-1.46-2.95-2.33-4.7-2.92-4.85-1.66-6.84 1.95-9.06 4.49-1.06 1.21-1.58 1.9-1.56 4.59.02 3.9 1.22 4.03 3.75 6.68 1.5 1.59 1.66.7 3.26 1.29 2.48.91 2.52 2 5 1.15zm48.48-3.52c5.87-1.98 5.95-6.22 3.61-12.53-.51-1.37-.7-1-2.35-2.65-1.9-1.89-3.01-1.77-4.89-2.35-3.2-1-3.46-.77-6.5.8-1.78.9-3.53 2.3-4.26 4.28-.87 2.36-.82 5.88.12 8.24 2.35 5.96 5.49 7.14 11.35 5.15z"/><path fill="#fc8e5e" d="M139.7 113.14c-.28-.34-.23-.6.24-1.19.84-1.07 1.34-3.34 1.1-4.96-.15-1-.44-1.55-1.1-2.07-.9-.7-.9-.71-.57-2.5.97-5.23 4.87-9.62 8.57-9.62a5.6 5.6 0 0 1 4.41 2.5c1.15 1.74 1.32 4.85.42 7.78-.65 2.11-3.26 6.05-4.26 6.42-.27.1-1.1.7-1.86 1.33-2.35 1.97-6.18 3.24-6.95 2.3zm-18.14-29.07c-2.97.99-3.75 1.36-3.6 1.72.1.25.24.83.32 1.3.12.7.03.83-.51.83-.36 0-1.12-.2-1.69-.43-1.15-.48-4.9-1.27-7.46-1.56a6 6 0 0 0-3.35.47 9 9 0 0 0-2.3 1.23c-.72.69-5.57 2.38-10.48 3.68a37 37 0 0 1-14.74.74c-2.09-.38-3.16-.72-3.6-1.17-.54-.53-1.06-.63-3.54-.7-1.6-.03-4.97-.36-7.48-.74-7.14-1.06-9.43-.58-18.56 3-9.86 3.89-4.82 1.75-8.75-.18-.83-.41 1.35-3.27 1.45-3.43s.41-.8.78-.8c2.47 0 7.8-1.74 10.13-3.79l1.43-1.26 2.13 1.12c7.65 4.03 16.39 4.6 23.5 1.54 2.35-1 .7-2.65 3.16-2.49.8.06 6.41 2.5 3.6 3.5-1.98.7-3.1.43-4.6 1.47s-2.7 2.06-2.7 2.28c0 1.48 10.88.82 19-1.15 1.77-.43 5.5-1.52 8.3-2.43l5.11-1.65 3.26.49c1.8.26 4.01.74 4.93 1.07 2.02.71 2.45.73 2.45.1 0-.53-1.33-1.92-3.03-3.2l-1.05-.79 2.79-1.47c1.53-.8 3.76-2.2 4.95-3.1s2.37-1.76 2.43-1.63c3 6.3 6.87 4.43-2.28 7.43zm38.25-9.72c0-.67.06-.9.14-.53s.07.93 0 1.22-.14-.01-.14-.69"/><path fill="#fc1811" d="M79.71 134.22c-1.2-.35-2.26-1.17-1.9-1.48.52-.46 3.7-1.52 5.55-1.86 1.1-.2 2.52-.61 3.18-.92s1.62-.57 2.15-.57 1.07-.13 1.23-.29 1.21-.38 2.34-.5c2.55-.26 2.64.04.57 2.03a16.4 16.4 0 0 1-6.73 3.61 17 17 0 0 1-6.39-.03M0 81.69c0-1.35.11-1.55 1.75-3.18 4.27-4.25 15.44-10.13 27.15-14.28 2.1-.74 3.93-1.47 4.07-1.61s.46-.19.69-.1.42 0 .42-.2-.14-.27-.3-.16c-.33.2-.25-.8.49-5.95.94-6.5 2.88-13.2 5.12-17.65A46.2 46.2 0 0 1 59.48 18.7c6.4-3.12 15.19-5.4 22.82-5.93l4.5-.32a30 30 0 0 1 5.78.1 195 195 0 0 0 5.85.66 81 81 0 0 1 25.38 6.75c2.02.9 1.75.96 2.64 1.57 2.27 1.54 0 1.65.6 3.15 2.07 5.3 2.91 8.6 4.73 18.58.6 3.3.67 4.8.73 15.62l.03 11.97c-.03 0-1.26-.48-2.76-1.07s-2.85-1.06-3.02-1.06c-.67 0-3.15 1.38-4.27 2.38-4.49 3.99-14.78 9.1-22.16 11.01-11.43 2.96-19.03 1.8-41.6-6.37-11.08-4.01-20.97-5.57-28.16-4.45-11.1 1.74-18.76 4.15-24.44 7.7-2.39 1.49-4.91 3.8-4.91 4.5 0 .22-1.22-.45-1.22-1.8zm73.63-29.15 23.2-8.72c.83-.43 1.75-1.82 1.75-2.67 0-1.13-.85-2.1-3.02-3.44l-8.92-5.65c-10.94-6.99-14.52-9.08-15.5-9.08-1.2 0-1.98.45-2.5 1.46-.45.88-5.66 26.62-5.66 27.98q0 1.73 1.62 2.43c1.21.51 1.16.53 9.03-2.31z"/><path fill="#d80a0a" d="M79.33 134.7a4 4 0 0 1-1.93-1.2c-.46-.7-.46-.82.01-1.53 1.75-2.67 9.38-5.4 15.23-5.45l2.74-.03.1.82c.27 2.38-4.85 6.5-9.39 7.54-1.9.44-5.05.37-6.76-.15zm6.76-.45a16.5 16.5 0 0 0 6.74-3.61c2.07-2 1.98-2.3-.56-2.04-1.13.12-2.19.34-2.35.5s-.71.3-1.23.3-1.49.25-2.15.56-2.09.73-3.18.93c-1.85.34-5.03 1.4-5.56 1.85-.35.3.72 1.14 1.91 1.48 1.42.4 4.7.42 6.39.03M10.5 88.22c-3.32-.48-6.84-1.84-8.12-3.15-.63-.65-1.15-1.36-1.15-1.58 0-.7 2.53-3.02 4.92-4.5 5.68-3.55 13.33-5.96 24.43-7.7 7.2-1.13 17.08.43 28.17 4.44 22.57 8.17 30.16 9.33 41.6 6.38 7.37-1.9 17.67-7.03 22.15-11.02 1.12-1 3.6-2.38 4.28-2.38.16 0 1.52.48 3.02 1.07l2.75 1.07c.02 0 0-5.39-.03-11.97-.05-10.83-.12-12.32-.73-15.63-1.82-9.98-2.65-13.27-4.74-18.58-.59-1.5-1-2.78-.93-2.86.19-.19 4.02 1.85 6.18 3.29 1.02.67 2 1.23 2.18 1.23s.48.34.67.76.6.76.92.76c.99 0 3.19 1.78 7.95 6.4 2.86 2.79 6.9 7.55 6.9 8.13 0 .11.32.63.7 1.15 1.1 1.47 2.5 4.1 3.4 6.43a49 49 0 0 0 1.43 3.3c.84 1.67 2.26 8.81 2.65 13.32.53 6.33.62 8.2.36 8.37-.13.08-.33 1.28-.45 2.67s-.45 3.73-.76 5.2-.5 3.04-.42 3.5l.14.84-.56-.79c-2.33-3.26-7.1-6.64-14.7-10.4-4.7-2.32-15-6.65-15.85-6.65-.61 0-2.84 1.3-4.66 2.74-7.7 6.06-19.64 10.99-28.92 11.93-5.14.52-13.98-.46-18.27-2.04a12 12 0 0 0-2.74-.55c-1.3-.1-3.73-1.02-5.32-2.03-.85-.54-11.59-4.26-15.38-5.33-6.78-1.92-15.61-3-19.46-2.37l-1.51.25.1 2.43c.04 1.34.2 3.4.35 4.57s.15 2.26 0 2.4-1.7.47-3.47.74c-3.77.56-3.9.75-2.02 2.89l1.22 1.38-.84.15c-.45.09-2.47.5-4.48.93-4.19.88-8.31 1.19-10.95.81zm68.62-3.09c-.76-.29-1.58-.46-1.83-.37q-.52.18-.1-.21c.2-.2.28-.57.18-.83-.15-.4.03-.43 1.16-.25 1.54.24 2.2.76 2.06 1.6-.1.57-.15.57-1.47.06z"/><path fill="#0b0602" d="M78.5 136.53c-6.14-1.62-11.78-6.99-13.49-12.83-.38-1.3-.4-1.67-.07-2.12.38-.51.53-.5 3.4.06 3.64.7 12.62.8 16.24.17 4.25-.74 8.35-1.9 12.1-3.4 2.06-.82 3.94-1.42 4.18-1.33 1.45.56.94 5.38-.96 9.26a20.5 20.5 0 0 1-8.63 8.5c-4.19 2.06-8.96 2.7-12.77 1.69m7.6-1.68c4.53-1.04 9.65-5.16 9.38-7.54l-.1-.82-2.73.03c-5.86.05-13.5 2.79-15.24 5.45-.46.72-.47.83-.01 1.53.93 1.43 5.38 2.12 8.7 1.36zm-30.32-22.8c-4-1.38-6.58-5.02-7-9.83-.47-5.35 2.4-9.49 7.54-10.84 1.86-.49 2.12-.49 4.03-.02 3.67.9 6.28 3.4 7.4 7.07 1.4 4.6-.18 9.95-3.64 12.3-2.71 1.86-5.52 2.3-8.33 1.33m7.67-11.46c1.02-1.03 1.07-3.6.08-4.64-.9-.97-3.1-1-4.1-.05-1.07 1-1 3.41.1 4.58a2.7 2.7 0 0 0 3.92.1M102 111.56c-3.34-1.04-5.95-3.8-7.09-7.46-2.63-8.45 4.4-15.92 12.78-13.57 7 1.97 10.08 10.85 5.95 17.11-2.37 3.58-7.36 5.26-11.64 3.92m7.86-12.08c.73-.78.89-1.22.89-2.43 0-1.23-.17-1.67-.95-2.56-.81-.94-1.12-1.08-2.3-1.08-1.15 0-1.53.16-2.26.95-.74.8-.88 1.2-.88 2.56s.14 1.76.88 2.56 1.1.94 2.31.94 1.57-.15 2.32-.94zm20.53 3.82c-.26-.27-.47-.54-.47-.62s-.28-1.88-.62-4.01c-1.2-7.5-4.12-19.74-5.2-21.8-.25-.45-.55-.31-2.47 1.17-1.2.93-3.45 2.38-5 3.22s-2.84 1.62-2.83 1.73.7.69 1.56 1.27c1.52 1.06 2.7 2.54 2.31 2.92-.1.1-1.06-.1-2.1-.45s-3.42-.86-5.27-1.12l-3.36-.48-3.65 1.26c-7.57 2.61-13.86 4-20.69 4.59-4.2.36-7.9.11-7.9-.52 0-.2 1.02-1.08 2.27-1.95 3.04-2.11 3.66-2.7 3.66-3.5 0-.9-.54-1.3-2.12-1.54-1.13-.19-1.3-.15-1.15.26.25.64-.5 1.24-2.68 2.16-6.3 2.63-15.15 2.04-22.27-1.5l-2.81-1.4-1.44 1.26c-1.91 1.7-5.26 3.27-8.36 3.94-2.94.64-2.83.38-2 4.91.75 3.99 1.22 8.89.9 9.21-.17.17-.81-.58-1.65-1.95-1.95-3.15-2.04-3.34-3.45-7.4-.7-2-1.46-3.74-1.7-3.85l-2.35-1.07a10.5 10.5 0 0 1-3.57-2.65c-2.38-2.57-2.3-2.75 1.58-3.33 1.78-.26 3.34-.6 3.48-.74s.14-1.22 0-2.4a67 67 0 0 1-.36-4.56l-.1-2.44 1.52-.25c3.85-.62 12.68.45 19.46 2.37 3.8 1.07 14.52 4.8 15.37 5.33 1.6 1.02 4.03 1.94 5.33 2.03.84.06 2.07.3 2.74.55 2.32.86 4.9 1.35 9.82 1.87 5.93.63 9.86.36 15.43-1.08 7.3-1.89 16.41-6.33 21.94-10.68 1.82-1.43 4.04-2.74 4.66-2.74.84 0 11.15 4.33 15.84 6.65 6.4 3.17 10.1 5.58 12.86 8.38a20 20 0 0 1 2.07 2.3c.19 2.17.18 6.48 0 6.6-.14.08-.56-.6-.94-1.53-.86-2.14-3-4.53-4.9-5.5-1.17-.6-1.92-.74-3.83-.74-2.07 0-2.66.13-4.51 1.02-3.53 1.7-5.84 4.79-8.39 11.24-1.71 4.33-2.22 5.25-3.15 5.67-1 .46-.93.46-1.5-.11z"/></svg>