<?xml version="1.0" encoding="UTF-8" standalone="no"?>
<!-- Created with Inkscape (http://www.inkscape.org/) -->

<svg
   width="162.93616mm"
   height="162.26988mm"
   viewBox="0 0 162.93616 162.26988"
   version="1.1"
   id="svg1"
   xml:space="preserve"
   sodipodi:docname="pytr.svg"
   inkscape:version="1.4.3 (0d15f75042, 2025-12-25)"
   xmlns:inkscape="http://www.inkscape.org/namespaces/inkscape"
   xmlns:sodipodi="http://sodipodi.sourceforge.net/DTD/sodipodi-0.dtd"
   xmlns="http://www.w3.org/2000/svg"
   xmlns:svg="http://www.w3.org/2000/svg"><sodipodi:namedview
     id="namedview1"
     pagecolor="#ffffff"
     bordercolor="#000000"
     borderopacity="0.25"
     inkscape:showpageshadow="2"
     inkscape:pageopacity="0.0"
     inkscape:pagecheckerboard="0"
     inkscape:deskcolor="#d1d1d1"
     inkscape:document-units="mm"
     showguides="false"
     inkscape:zoom="0.87036336"
     inkscape:cx="222.89541"
     inkscape:cy="384.89672"
     inkscape:window-width="1408"
     inkscape:window-height="1217"
     inkscape:window-x="0"
     inkscape:window-y="0"
     inkscape:window-maximized="0"
     inkscape:current-layer="g1" /><defs
     id="defs1" /><g
     inkscape:label="Layer 1"
     inkscape:groupmode="layer"
     id="layer1"
     transform="translate(-14.371358,-34.533675)"><g
       id="g1"
       transform="translate(-3.7812324,4.2388873)"><rect
         style="fill:#ffffff;stroke-width:1.36438"
         id="rect3"
         width="134.06038"
         height="91.501534"
         x="31.748478"
         y="78.446892"
         rx="12.159971" /><path
         style="fill:#f6222e"
         d="m 55.033335,192.3294 c -13.432839,-0.54631 -21.532449,-3.36948 -27.755132,-9.67421 -4.523521,-4.58316 -6.993293,-10.07741 -8.426607,-18.74581 -0.563024,-3.40506 -0.569715,-3.88573 -0.666672,-47.88959 -0.101999,-46.292412 -0.01089,-51.605077 0.98917,-57.679168 0.873915,-5.307923 2.572685,-10.058429 4.852151,-13.568739 5.136624,-7.91025 12.831648,-12.43112 23.863341,-14.019848 2.916403,-0.420005 7.107814,-0.457247 51.461456,-0.457247 45.019338,0 48.510228,0.03209 51.593748,0.474328 11.51242,1.651099 18.74291,5.765418 24.04273,13.680881 3.68019,5.496489 5.35558,11.775046 5.85998,21.960418 0.32563,6.575652 0.31999,86.442665 -0.007,92.326085 -0.3033,5.46499 -0.81931,8.75885 -1.90879,12.18434 -1.95241,6.13869 -5.24245,10.95057 -9.82573,14.37074 -6.21479,4.63765 -12.78431,6.48124 -25.17312,7.06431 -6.23659,0.29351 -81.583594,0.27106 -88.899995,-0.0265 z m 54.636455,-32.37902 c 10.44668,-1.62623 18.27658,-4.78897 25.70018,-10.38109 4.35902,-3.28361 8.88313,-8.70348 11.35889,-13.60793 0.43118,-0.85416 0.87155,-1.55019 0.97859,-1.54671 0.10705,0.003 0.64543,0.11096 1.1964,0.23888 1.17874,0.27365 3.5969,-0.21297 5.25057,-1.05661 1.5276,-0.77933 3.32447,-2.50338 4.50843,-4.32574 3.94858,-6.07766 2.29079,-14.7017 -3.13414,-16.30423 -1.6309,-0.48178 -1.83302,-0.30275 -2.02812,1.79644 -0.23473,2.52558 -1.32686,6.68651 -2.3035,8.77614 -0.97297,2.0818 -2.33189,4.25422 -2.66113,4.25422 -0.13035,0 -0.237,-1.06546 -0.237,-2.3677 0,-8.4224 -2.98639,-18.24743 -7.72463,-25.41355 -1.58656,-2.399505 -4.29026,-5.726951 -5.02143,-6.179872 -0.34624,-0.214477 -1.29928,0.136639 -4.36563,1.608377 -8.1598,3.916412 -16.24859,5.974805 -25.08935,6.384615 -4.0479,0.18764 -11.105395,0.002 -11.407473,-0.3001 -0.09191,-0.0919 0.506045,-0.91097 1.328789,-1.820135 2.474418,-2.734321 6.299974,-8.719167 5.856694,-9.162445 -0.0545,-0.05454 -1.48306,0.513465 -3.174497,1.26223 -5.886672,2.605918 -11.908011,4.27043 -19.26757,5.326243 -3.190708,0.457743 -4.688562,0.521804 -9.848445,0.421199 -6.513347,-0.126994 -10.389085,-0.630094 -14.880167,-1.931559 -1.2064,-0.3496 -2.296097,-0.635637 -2.421551,-0.635637 -0.438345,0 -1.859673,6.386344 -2.590938,11.641664 -0.343813,2.47086 -0.462738,5.16418 -0.470231,10.64944 -0.0055,4.03818 -0.09594,7.34217 -0.200941,7.34219 -0.326103,7e-5 -2.252832,-4.28182 -2.678718,-5.95308 -0.222498,-0.87313 -0.523559,-2.46702 -0.669026,-3.54199 -0.145467,-1.07497 -0.387223,-2.07723 -0.537235,-2.22724 -0.409224,-0.40922 -2.186729,0.20781 -3.492877,1.2125 -2.292842,1.76366 -3.689284,5.80678 -3.167381,9.17052 0.770698,4.96727 3.158522,8.57531 6.893673,10.41645 1.492578,0.73572 2.004823,0.84899 3.96875,0.87756 l 2.254976,0.0328 0.935655,1.68698 c 2.438734,4.39704 5.884182,8.65517 9.31883,11.51688 8.937141,7.44632 18.709486,11.23135 32.608013,12.62976 2.470232,0.24854 12.55741,-0.076 15.21354,-0.48948 z M 96.783694,139.41552 c -1.19376,-0.11427 -2.920167,-0.39479 -3.836458,-0.62338 -2.37744,-0.5931 -6.258319,-2.57583 -7.859394,-4.01533 -2.399327,-2.1572 -2.728938,-3.53759 -1.207904,-5.05862 0.817051,-0.81705 1.050477,-0.91401 1.877399,-0.77982 0.622171,0.10096 1.381611,0.56226 2.226083,1.35217 1.834237,1.71571 3.522278,2.71293 5.943664,3.51124 1.828276,0.60277 2.5853,0.70065 5.556249,0.71835 2.898337,0.0173 3.751837,-0.0767 5.423957,-0.59692 2.25068,-0.70028 4.01489,-1.73744 5.99232,-3.52283 2.1422,-1.93415 3.82072,-1.93656 4.94433,-0.007 0.44182,0.75869 0.47046,1.01942 0.20812,1.89504 -0.59554,1.98771 -4.67724,4.9072 -8.63123,6.17358 -2.76517,0.88562 -7.19697,1.28294 -10.637136,0.95363 z M 73.421876,124.9913 c -1.354889,-0.58596 -2.585043,-1.87874 -3.501579,-3.67984 -0.725808,-1.4263 -0.809848,-1.84273 -0.827633,-4.10104 -0.01713,-2.17489 0.07223,-2.70961 0.6632,-3.96875 0.721654,-1.53758 2.244209,-3.23249 3.4818,-3.87594 1.075524,-0.55919 3.052611,-0.72605 4.37538,-0.36927 1.59416,0.42998 3.247525,2.03751 4.162858,4.04744 0.662523,1.45479 0.751462,1.95433 0.741815,4.16652 -0.0099,2.27515 -0.08819,2.6641 -0.82528,4.10104 -0.94321,1.83877 -2.170069,3.10865 -3.565709,3.69076 -1.239347,0.51691 -3.496466,0.51167 -4.704852,-0.0109 z M 120.65,124.90983 c -1.43982,-0.66805 -2.60822,-1.96635 -3.47337,-3.85952 -0.61832,-1.35307 -0.72388,-1.93231 -0.72388,-3.97218 0,-1.99273 0.11047,-2.62849 0.66727,-3.8399 0.91169,-1.98354 1.83934,-3.00691 3.45585,-3.81245 3.31269,-1.65078 6.5415,-0.34882 8.47898,3.41901 0.67505,1.31278 0.83555,1.97669 0.92747,3.83646 0.12546,2.5386 -0.3946,4.37937 -1.77606,6.28643 -1.57744,2.17759 -5.09839,3.08256 -7.55626,1.94215 z"
         id="path3" /><path
         style="fill:#3a4351"
         d="m 55.033335,192.3294 c -13.432839,-0.54631 -21.532449,-3.36948 -27.755132,-9.67421 -4.523521,-4.58316 -6.993293,-10.07741 -8.426607,-18.74581 -0.563024,-3.40506 -0.569715,-3.88573 -0.666672,-47.88959 -0.101999,-46.292412 -0.01089,-51.605077 0.98917,-57.679168 0.873915,-5.307923 2.572685,-10.058429 4.852151,-13.568739 5.136624,-7.91025 12.831648,-12.43112 23.863341,-14.019848 2.916403,-0.420005 7.107814,-0.457247 51.461456,-0.457247 45.019338,0 48.510228,0.03209 51.593748,0.474328 11.51242,1.651099 18.74291,5.765418 24.04273,13.680881 3.68019,5.496489 5.35558,11.775046 5.85998,21.960418 0.32563,6.575652 0.31999,86.442665 -0.007,92.326085 -0.3033,5.46499 -0.81931,8.75885 -1.90879,12.18434 -1.95241,6.13869 -5.24245,10.95057 -9.82573,14.37074 -6.21479,4.63765 -12.78431,6.48124 -25.17312,7.06431 -6.23659,0.29351 -81.583594,0.27106 -88.899995,-0.0265 z m 54.636455,-32.37902 c 10.44668,-1.62623 18.27658,-4.78897 25.70018,-10.38109 4.35902,-3.28361 8.88313,-8.70348 11.35889,-13.60793 0.43118,-0.85416 0.87155,-1.55019 0.97859,-1.54671 0.10705,0.003 0.64543,0.11096 1.1964,0.23888 1.17874,0.27365 3.5969,-0.21297 5.25057,-1.05661 1.5276,-0.77933 3.32447,-2.50338 4.50843,-4.32574 3.94858,-6.07766 2.29079,-14.7017 -3.13414,-16.30423 -1.6309,-0.48178 -1.83302,-0.30275 -2.02812,1.79644 -0.23473,2.52558 -1.32686,6.68651 -2.3035,8.77614 -0.97297,2.0818 -2.33189,4.25422 -2.66113,4.25422 -0.13035,0 -0.237,-1.06546 -0.237,-2.3677 0,-8.4224 -2.98639,-18.24743 -7.72463,-25.41355 -1.58656,-2.399505 -4.29026,-5.726951 -5.02143,-6.179872 -0.34624,-0.214477 -1.29928,0.136639 -4.36563,1.608377 -8.1598,3.916412 -16.24859,5.974805 -25.08935,6.384615 -4.0479,0.18764 -11.105395,0.002 -11.407473,-0.3001 -0.09191,-0.0919 0.506045,-0.91097 1.328789,-1.820135 2.474418,-2.734321 6.299974,-8.719167 5.856694,-9.162445 -0.0545,-0.05454 -1.48306,0.513465 -3.174497,1.26223 -5.886672,2.605918 -11.908011,4.27043 -19.26757,5.326243 -3.190708,0.457743 -4.688562,0.521804 -9.848445,0.421199 -6.513347,-0.126994 -10.389085,-0.630094 -14.880167,-1.931559 -1.2064,-0.3496 -2.296097,-0.635637 -2.421551,-0.635637 -0.438345,0 -1.859673,6.386344 -2.590938,11.641664 -0.343813,2.47086 -0.462738,5.16418 -0.470231,10.64944 -0.0055,4.03818 -0.09594,7.34217 -0.200941,7.34219 -0.326103,7e-5 -2.252832,-4.28182 -2.678718,-5.95308 -0.222498,-0.87313 -0.523559,-2.46702 -0.669026,-3.54199 -0.145467,-1.07497 -0.387223,-2.07723 -0.537235,-2.22724 -0.409224,-0.40922 -2.186729,0.20781 -3.492877,1.2125 -2.292842,1.76366 -3.689284,5.80678 -3.167381,9.17052 0.770698,4.96727 3.158522,8.57531 6.893673,10.41645 1.492578,0.73572 2.004823,0.84899 3.96875,0.87756 l 2.254976,0.0328 0.935655,1.68698 c 2.438734,4.39704 5.884182,8.65517 9.31883,11.51688 8.937141,7.44632 18.709486,11.23135 32.608013,12.62976 2.470232,0.24854 12.55741,-0.076 15.21354,-0.48948 z M 96.783694,139.41552 c -1.19376,-0.11427 -2.920167,-0.39479 -3.836458,-0.62338 -2.37744,-0.5931 -6.258319,-2.57583 -7.859394,-4.01533 -2.399327,-2.1572 -2.728938,-3.53759 -1.207904,-5.05862 0.817051,-0.81705 1.050477,-0.91401 1.877399,-0.77982 0.622171,0.10096 1.381611,0.56226 2.226083,1.35217 1.834237,1.71571 3.522278,2.71293 5.943664,3.51124 1.828276,0.60277 2.5853,0.70065 5.556249,0.71835 2.898337,0.0173 3.751837,-0.0767 5.423957,-0.59692 2.25068,-0.70028 4.01489,-1.73744 5.99232,-3.52283 2.1422,-1.93415 3.82072,-1.93656 4.94433,-0.007 0.44182,0.75869 0.47046,1.01942 0.20812,1.89504 -0.59554,1.98771 -4.67724,4.9072 -8.63123,6.17358 -2.76517,0.88562 -7.19697,1.28294 -10.637136,0.95363 z M 73.421876,124.9913 c -1.354889,-0.58596 -2.585043,-1.87874 -3.501579,-3.67984 -0.725808,-1.4263 -0.809848,-1.84273 -0.827633,-4.10104 -0.01713,-2.17489 0.07223,-2.70961 0.6632,-3.96875 0.721654,-1.53758 2.244209,-3.23249 3.4818,-3.87594 1.075524,-0.55919 3.052611,-0.72605 4.37538,-0.36927 1.59416,0.42998 3.247525,2.03751 4.162858,4.04744 0.662523,1.45479 0.751462,1.95433 0.741815,4.16652 -0.0099,2.27515 -0.08819,2.6641 -0.82528,4.10104 -0.94321,1.83877 -2.170069,3.10865 -3.565709,3.69076 -1.239347,0.51691 -3.496466,0.51167 -4.704852,-0.0109 z M 120.65,124.90983 c -1.43982,-0.66805 -2.60822,-1.96635 -3.47337,-3.85952 -0.61832,-1.35307 -0.72388,-1.93231 -0.72388,-3.97218 0,-1.99273 0.11047,-2.62849 0.66727,-3.8399 0.91169,-1.98354 1.83934,-3.00691 3.45585,-3.81245 3.31269,-1.65078 6.5415,-0.34882 8.47898,3.41901 0.67505,1.31278 0.83555,1.97669 0.92747,3.83646 0.12546,2.5386 -0.3946,4.37937 -1.77606,6.28643 -1.57744,2.17759 -5.09839,3.08256 -7.55626,1.94215 z m 1.78624,-30.309628 c 6.66074,-1.930205 16.03508,-6.74463 25.17095,-12.927163 4.46215,-3.019673 5.44232,-4.755411 4.13379,-7.320337 -0.2897,-0.567856 -0.92628,-1.337222 -1.41463,-1.709704 -0.97421,-0.743066 -11.11198,-5.715029 -14.06593,-6.898491 -2.65471,-1.06357 -6.48175,-1.221113 -9.75336,-0.401503 -1.28058,0.320815 -2.38268,0.528947 -2.44911,0.462517 -0.19184,-0.191844 2.24627,-1.667986 4.19882,-2.542152 0.98227,-0.439765 1.78594,-0.89856 1.78594,-1.019544 0,-0.120985 -0.81482,-0.660071 -1.8107,-1.19797 -7.20901,-3.89375 -11.73392,-3.257843 -13.25964,1.863436 -0.29188,0.979732 -0.89463,4.043519 -1.33945,6.808415 -2.74603,17.068835 -3.06771,18.439854 -5.29551,22.570052 -0.58604,1.08649 -1.00364,2.037327 -0.928,2.11297 0.27507,0.27507 3.63515,-1.362764 6.02709,-2.937839 2.89521,-1.906474 7.36934,-6.249152 9.59156,-9.309765 2.07912,-2.863526 2.08067,-2.86466 1.86575,-1.360841 -0.64328,4.500908 -2.90892,10.108114 -5.60123,13.862404 -0.41065,0.572636 -0.40162,0.595312 0.23722,0.595312 0.36527,0 1.67317,-0.292408 2.90644,-0.649797 z"
         id="path2" /><path
         style="fill:#1b232f"
         d="M 92.736459,167.73633 C 72.206126,165.79429 56.086455,156.77561 47.525177,142.44138 l -1.223091,-2.04783 -1.546122,-0.34627 c -3.857553,-0.86392 -8.141273,-4.09683 -10.300987,-7.77411 -1.576505,-2.68427 -2.097249,-4.64828 -2.241395,-8.45352 -0.107656,-2.84195 -0.04279,-3.61913 0.456535,-5.46964 1.019002,-3.77647 3.381756,-7.08791 6.492946,-9.09995 l 1.680554,-1.08684 0.0023,-2.55401 c 0.0035,-3.97266 0.977075,-9.324003 2.296083,-12.621005 l 0.664298,-1.660484 -1.435194,-2.107718 C 39.914406,85.612155 37.924517,80.733654 37.042528,76.1563 36.449509,73.07865 36.238636,67.077558 36.62104,64.161456 c 0.394926,-3.011594 1.056938,-5.430916 1.536441,-5.614918 0.204043,-0.0783 0.691301,0.157994 1.082796,0.525094 0.979785,0.918734 3.30803,2.335798 5.209725,3.170851 2.412268,1.05925 7.805208,2.391915 7.805208,1.928768 0,-0.06737 -0.246376,-0.747558 -0.547502,-1.511522 -1.092814,-2.772492 -1.639242,-5.749859 -1.642442,-8.949315 -0.0033,-3.262844 0.442044,-5.027084 1.268876,-5.027084 0.235868,0 0.950579,0.358959 1.588246,0.797686 2.364697,1.626954 5.544563,2.54562 9.741973,2.814463 3.083181,0.197478 6.207755,-0.188851 12.345015,-1.526362 10.85193,-2.364994 17.070401,-3.046795 25.532294,-2.799394 18.90559,0.552746 33.02206,5.666316 43.65624,15.8141 1.2559,1.19845 2.43946,2.093769 2.91042,2.201616 1.40492,0.321717 6.03166,2.760121 7.87568,4.150673 4.46462,3.366699 7.77175,9.219604 8.95787,15.85347 0.52133,2.915748 0.44993,9.603274 -0.13683,12.817323 -0.56651,3.103075 -1.47825,6.024045 -2.55737,8.193165 -0.42784,0.85999 -0.77789,1.68183 -0.77789,1.82631 0,0.14449 0.70265,0.94811 1.56143,1.78584 1.89685,1.85033 3.54948,4.55978 4.46385,7.31838 0.59359,1.79082 0.68174,2.5044 0.67912,5.49753 -0.002,2.86318 -0.10195,3.72778 -0.59347,5.15937 -1.36118,3.96458 -4.64662,8.01835 -7.89017,9.73539 -1.89583,1.00358 -4.3822,1.90628 -5.25066,1.90628 -0.47331,0 -0.82596,0.42497 -1.70154,2.05052 -2.35535,4.37278 -6.45426,9.24806 -10.55809,12.55786 -8.36097,6.74325 -18.29031,10.74773 -31.04627,12.5209 -3.54286,0.49248 -13.825055,0.71581 -17.397531,0.37788 z m 14.816661,-7.00186 c 11.39662,-1.35071 20.3543,-4.77575 27.96594,-10.69297 4.87462,-3.78949 9.39031,-9.19441 11.76806,-14.08543 0.45539,-0.93672 0.49961,-0.95897 1.46829,-0.73886 1.25298,0.28471 3.76719,-0.26232 5.69459,-1.23901 4.42301,-2.24131 7.64195,-8.72426 6.85265,-13.80124 -0.38647,-2.48589 -1.34241,-4.48612 -2.85812,-5.98042 -1.12685,-1.11093 -2.95917,-2.01321 -4.08839,-2.01321 -0.73363,0 -1.29468,0.75305 -1.29468,1.73772 0,1.44629 -1.19988,6.7061 -1.95082,8.55165 -0.3783,0.92972 -1.0162,2.23941 -1.41755,2.91041 l -0.72974,1.22002 -0.18845,-2.99177 c -0.59887,-9.50754 -3.9014,-18.82971 -9.15703,-25.847819 -1.51279,-2.020109 -4.03295,-4.630209 -4.47067,-4.630209 -0.18481,0 -2.03401,0.820435 -4.10932,1.823188 -6.67961,3.227464 -13.00873,5.05038 -21.26673,6.12528 -2.29456,0.29866 -13.219771,0.38104 -13.938871,0.10509 -0.3758,-0.1442 -0.224528,-0.42084 0.907328,-1.659274 3.322123,-3.634929 6.827273,-9.833867 5.560503,-9.833867 -0.12427,0 -1.40419,0.550773 -2.844274,1.22394 -5.556655,2.597455 -12.774444,4.635221 -20.122695,5.68115 -3.385497,0.481881 -4.747636,0.540343 -9.880015,0.424038 -6.649921,-0.150694 -10.016787,-0.620088 -15.690586,-2.187512 -1.569801,-0.433668 -1.831015,-0.447408 -2.042804,-0.107455 -0.484396,0.777532 -2.085107,8.14815 -2.526737,11.63459 -0.248849,1.96453 -0.524856,6.48891 -0.613349,10.05417 l -0.160898,6.48229 -0.874499,-2.36929 c -0.680967,-1.84496 -1.626167,-6.23732 -1.637483,-7.60942 -8.58e-4,-0.10402 -0.253527,-0.32398 -0.561488,-0.4888 -1.487796,-0.79624 -5.105661,1.59484 -6.319124,4.17637 -0.323104,0.68738 -0.761523,2.10331 -0.974265,3.14652 -0.34003,1.6674 -0.339529,2.17069 0.0041,4.16221 1.147733,6.65086 5.931901,11.28553 11.649555,11.28553 h 1.700408 l 0.723367,1.38907 c 1.286769,2.47095 3.816355,5.93633 6.11822,8.38159 7.497544,7.9646 17.778662,13.14141 30.255537,15.23445 5.740362,0.96296 13.55009,1.17913 19.05,0.52728 z M 96.873394,138.88349 c -4.737549,-0.50578 -9.242606,-2.31118 -11.827202,-4.73974 -1.862506,-1.75006 -2.063476,-3.58109 -0.489989,-4.46427 0.997828,-0.56006 1.867138,-0.22015 3.74243,1.46337 3.985032,3.57749 10.226619,4.95466 15.903117,3.50891 2.7023,-0.68824 4.35584,-1.57247 6.30311,-3.37056 2.32487,-2.14676 4.23755,-2.38338 4.9701,-0.61485 0.52637,1.27077 -0.0193,2.46753 -1.77846,3.90053 -4.09134,3.33278 -10.53991,4.98741 -16.823106,4.31661 z m -23.58381,-14.48601 c -1.385502,-0.65807 -2.063585,-1.42654 -2.931474,-3.32226 -0.604923,-1.32133 -0.714392,-1.92323 -0.721658,-3.96797 -0.0097,-2.7352 0.45213,-4.12253 1.934426,-5.81077 1.08706,-1.23809 1.9311,-1.68118 3.632382,-1.90687 2.662582,-0.3532 4.719101,0.86675 5.971053,3.54212 0.720496,1.53966 0.810442,2.00279 0.810442,4.17295 0,2.25277 -0.07004,2.58061 -0.908002,4.24997 -1.238762,2.46782 -2.499017,3.34871 -4.9543,3.46294 -1.326402,0.0617 -2.041802,-0.0444 -2.832869,-0.42011 z m 47.265636,-0.0853 c -2.17017,-1.0742 -3.57994,-3.92293 -3.57994,-7.23401 0,-2.65067 0.67817,-4.45182 2.25419,-5.98691 1.515,-1.47565 2.68852,-1.9213 4.63445,-1.75993 2.01637,0.16722 3.40551,1.19307 4.58795,3.38812 0.87712,1.62827 0.92286,1.84358 0.92604,4.35872 0.004,3.1282 -0.60571,4.83696 -2.25852,6.33018 -1.71879,1.55282 -4.48388,1.93355 -6.56417,0.90383 z m 1.02082,-29.206588 c 5.7302,-1.532618 13.70336,-5.323402 21.56354,-10.252237 5.75537,-3.608984 8.03764,-5.341154 8.78684,-6.668942 1.07078,-1.897711 0.66421,-3.826883 -1.14066,-5.412417 -1.02029,-0.896302 -10.94595,-5.882074 -14.52534,-7.296249 -2.81557,-1.112395 -7.54223,-1.206563 -10.67628,-0.212702 -1.07665,0.341426 1.05717,-1.025266 2.60648,-1.669423 2.40979,-1.001919 2.60594,-1.221635 1.67624,-1.877632 -2.12644,-1.500413 -6.19339,-3.129133 -8.45143,-3.384602 -2.26176,-0.255889 -3.6951,0.202763 -5.05583,1.617809 -1.42082,1.477546 -1.9193,3.105402 -2.99126,9.768549 -2.26166,14.058049 -2.5135,15.388015 -3.48203,18.388543 -0.59331,1.838119 -1.82019,4.447841 -2.63128,5.597094 -0.62614,0.887187 -0.6211,1.017489 0.0393,1.017489 0.86592,0 3.86406,-1.472995 6.31486,-3.102509 2.57089,-1.709357 7.44132,-6.401651 9.54991,-9.200616 l 1.39526,-1.852084 -0.17627,1.395843 c -0.38933,3.083126 -2.47986,8.365436 -4.50566,11.384853 -1.14824,1.71141 -1.44768,2.433657 -1.00839,2.432179 0.10914,-3.67e-4 1.32953,-0.303193 2.71198,-0.672946 z"
         id="path1" /></g></g></svg>
